<svg width="449" height="116" viewBox="0 0 449 116" fill="none" xmlns="http://www.w3.org/2000/svg">
  <defs>
    <linearGradient id="logo-copper" x1="55" y1="18" x2="105" y2="96" gradientUnits="userSpaceOnUse">
      <stop offset="0%" stop-color="#F3C7A7"/>
      <stop offset="45%" stop-color="#BD7C52"/>
      <stop offset="100%" stop-color="#8D5B3E"/>
    </linearGradient>
    <linearGradient id="logo-steel" x1="58.5" y1="9" x2="58.5" y2="107" gradientUnits="userSpaceOnUse">
      <stop offset="0%" stop-color="#4C525A"/>
      <stop offset="100%" stop-color="#2D3138"/>
    </linearGradient>
  </defs>

  <rect width="449" height="116" fill="white"/>

  <g transform="translate(21 9)">
    <path d="M41 1.5H56L79 24.5V73.5L56 96.5H41L18 73.5V24.5L41 1.5Z" fill="url(#logo-steel)" stroke="#2B2F35" stroke-width="3"/>
    <path d="M45.5 14H51.5V84H45.5V14Z" fill="url(#logo-copper)"/>
    <path d="M28 46H69V52H28V46Z" fill="url(#logo-copper)"/>
    <path d="M31 28L35.5 23.5L63.5 51.5L59 56L31 28Z" fill="url(#logo-copper)"/>
    <path d="M31 70L59 42L63.5 46.5L35.5 74.5L31 70Z" fill="url(#logo-copper)"/>
    <path d="M48.5 28L71 50.5L48.5 73L26 50.5L48.5 28Z" fill="url(#logo-copper)" stroke="#2D3138" stroke-width="2.5"/>
    <path d="M48.5 36L63 50.5L48.5 65L34 50.5L48.5 36Z" fill="#D79A72"/>
    <circle cx="48.5" cy="19" r="2.4" fill="#E7B996"/>
    <circle cx="78" cy="50.5" r="2.4" fill="#E7B996"/>
    <circle cx="48.5" cy="82" r="2.4" fill="#E7B996"/>
    <circle cx="19" cy="50.5" r="2.4" fill="#E7B996"/>
  </g>

  <g aria-label="CAGDAS ISI">
    <path d="M180.42 83.32C166.58 83.32 158.9 74.44 158.9 58.36V57.04C158.9 41.08 166.58 32.08 180.42 32.08H196.26C210.1 32.08 217.42 39.76 217.42 52.16V54.68H197.98V51.92C197.98 47.72 195.58 45.2 190.66 45.2H186.14C180.86 45.2 178.34 48.32 178.34 55.28V60.12C178.34 67.08 180.86 70.2 186.14 70.2H190.66C195.58 70.2 197.98 67.68 197.98 63.48V60.72H217.42V63.24C217.42 75.64 210.1 83.32 196.26 83.32H180.42Z" fill="#181B21"/>
    <path d="M221.07 82L238.23 33.4H267.03L284.19 82H264.03L261.03 72.4H243.99L240.99 82H221.07ZM247.47 59.8H257.55L252.63 43.96H252.39L247.47 59.8Z" fill="#181B21"/>
    <path d="M305.91 83.32C291.11 83.32 282.95 74.32 282.95 58.24V57.16C282.95 41.08 291.11 32.08 305.91 32.08H321.03C335.11 32.08 342.55 38.68 342.55 49.96V52.24H323.11V50.8C323.11 46.96 320.71 44.84 315.55 44.84H311.03C305.39 44.84 302.39 48.08 302.39 55.28V60.24C302.39 67.44 305.39 70.68 311.03 70.68H315.79C320.71 70.68 323.11 68.16 323.11 63.72V63.36H313.39V51.92H342.55V82H327.55L326.23 75.88H325.99C323.35 80.68 318.43 83.32 310.99 83.32H305.91Z" fill="#181B21"/>
    <path d="M351.07 82V33.4H385.99C401.35 33.4 409.63 41.56 409.63 56.56V58.84C409.63 73.84 401.35 82 385.99 82H351.07ZM370.51 68.76H382.03C387.91 68.76 390.19 65.88 390.19 59.76V55.64C390.19 49.52 387.91 46.64 382.03 46.64H370.51V68.76Z" fill="#181B21"/>
    <path d="M409.969 82L427.129 33.4H455.929L473.089 82H452.929L449.929 72.4H432.889L429.889 82H409.969ZM436.369 59.8H446.449L441.529 43.96H441.289L436.369 59.8Z" fill="#181B21"/>
    <path d="M494.713 83.32C479.793 83.32 471.753 76.24 471.753 64.72V63.4H490.113V64.12C490.113 68.08 492.633 70.32 498.033 70.32H501.873C507.153 70.32 509.193 68.64 509.193 65.88V65.52C509.193 62.52 507.273 61.32 500.553 60.48L491.793 59.4C478.353 57.72 472.353 52.32 472.353 42.72V42.12C472.353 31.92 480.993 24.88 496.233 24.88H500.913C515.953 24.88 523.753 31.84 523.753 43V44.08H505.393V43.48C505.393 39.76 503.233 37.76 498.553 37.76H495.073C490.633 37.76 488.593 39.32 488.593 41.96V42.2C488.593 45.08 490.513 46.16 496.633 46.88L505.393 47.96C519.673 49.76 525.913 54.92 525.913 64.76V65.36C525.913 76.04 517.033 83.32 501.513 83.32H494.713Z" fill="#181B21"/>
    <path d="M544.207 27.88L550.207 17.08H565.447L554.167 27.88H544.207ZM545.527 82V33.4H564.967V82H545.527Z" fill="#181B21"/>
    <path d="M613.748 82V33.4H633.188V82H613.748Z" fill="url(#logo-copper)"/>
    <path d="M644.941 82V33.4H664.381V82H644.941Z" fill="url(#logo-copper)"/>
    <path d="M678.454 83.32C663.534 83.32 655.494 76.24 655.494 64.72V63.4H673.854V64.12C673.854 68.08 676.374 70.32 681.774 70.32H685.614C690.894 70.32 692.934 68.64 692.934 65.88V65.52C692.934 62.52 691.014 61.32 684.294 60.48L675.534 59.4C662.094 57.72 656.094 52.32 656.094 42.72V42.12C656.094 31.92 664.734 24.88 679.974 24.88H684.654C699.694 24.88 707.494 31.84 707.494 43V44.08H689.134V43.48C689.134 39.76 686.974 37.76 682.294 37.76H678.814C674.374 37.76 672.334 39.32 672.334 41.96V42.2C672.334 45.08 674.254 46.16 680.374 46.88L689.134 47.96C703.414 49.76 709.654 54.92 709.654 64.76V65.36C709.654 76.04 700.774 83.32 685.254 83.32H678.454Z" fill="url(#logo-copper)"/>
  </g>
</svg>
