<svg width="166" height="58" viewBox="0 0 166 58" fill="none" xmlns="http://www.w3.org/2000/svg">
  <path d="M0 6.5H35.2V12.2H20.8V58H14.4V12.2H0V6.5Z" fill="#F4621B"/>
  <path d="M9.2 6.5H14.9V58H9.2V6.5Z" fill="#F4621B"/>
  <path d="M20.5 6.5H26.2V58H20.5V6.5Z" fill="#F4621B"/>
  <path d="M35.2 6.5H70.4V12.2H56V58H49.6V12.2H35.2V6.5Z" fill="#F4621B"/>
  <path d="M44.4 6.5H50.1V58H44.4V6.5Z" fill="#F4621B"/>
  <path d="M55.7 6.5H61.4V58H55.7V6.5Z" fill="#F4621B"/>
  <path d="M82.9 40.5V19.1H88.5V21.7C90.2 19.8 92.9 18.5 96.1 18.5C100.8 18.5 103.9 21 104.8 24.3C106.6 20.8 110 18.5 114.1 18.5C120.2 18.5 124.1 22.4 124.1 29.1V40.5H118.4V29.7C118.4 25.6 116.2 23.3 112.7 23.3C109.1 23.3 106.3 25.9 106.3 30.2V40.5H100.6V29.7C100.6 25.6 98.5 23.3 95 23.3C91.4 23.3 88.5 25.9 88.5 30.2V40.5H82.9Z" fill="#101010"/>
  <path d="M140.7 41.2C134.1 41.2 129.1 36.6 129.1 29.8C129.1 23 134.1 18.5 140.4 18.5C146.7 18.5 151.4 23 151.4 29.5C151.4 30.4 151.4 31.1 151.2 31.8H134.9C135.7 35.2 138.1 36.9 141.1 36.9C143.8 36.9 145.9 35.8 147.3 34H150.8C149 38.3 145 41.2 140.7 41.2ZM134.9 27.8H145.6C145 24.8 142.9 22.8 140.2 22.8C137.4 22.8 135.5 24.5 134.9 27.8Z" fill="#101010"/>
  <path d="M156.7 40.5V19.1H162.4V22.3C163.8 20 166.3 18.5 169.7 18.5V24.1H168.2C164.6 24.1 162.4 26.3 162.4 30.7V40.5H156.7Z" fill="#101010"/>
</svg>
